<?xml version="1.0" standalone="no"?>
<!DOCTYPE svg PUBLIC "-//W3C//DTD SVG 20010904//EN"
 "http://www.w3.org/TR/2001/REC-SVG-20010904/DTD/svg10.dtd">
<svg version="1.0" xmlns="http://www.w3.org/2000/svg"
 width="500.000000pt" height="500.000000pt" viewBox="0 0 500.000000 500.000000"
 preserveAspectRatio="xMidYMid meet">
<metadata>
Created by potrace 1.14, written by Peter Selinger 2001-2017
</metadata>
<g transform="translate(0.000000,500.000000) scale(0.100000,-0.100000)"
fill="#000000" stroke="none">
<path d="M2060 3402 c-70 -2 -99 -7 -112 -19 -17 -15 -18 -63 -18 -868 0 -813
1 -853 18 -868 16 -14 44 -17 184 -17 145 0 169 2 188 18 22 18 22 19 23 348
l1 329 342 0 c305 0 345 2 360 17 13 13 16 38 16 144 0 180 0 181 -18 198 -13
14 -60 16 -359 16 l-343 0 1 160 c0 139 2 160 16 161 9 0 180 1 381 1 401 1
420 3 420 56 4 172 0 284 -10 301 -9 17 -20 21 -63 21 -29 0 -250 1 -492 3
-242 1 -483 1 -535 -1z"/>
<path d="M395 3380 c-17 -19 -18 -55 -18 -648 1 -398 5 -651 12 -692 53 -322
222 -430 669 -428 350 2 511 79 585 279 14 35 28 86 31 112 4 27 10 59 12 70
3 12 5 308 5 657 l1 634 -22 18 c-21 17 -42 19 -191 18 -144 -2 -170 -4 -183
-19 -13 -15 -15 -93 -16 -634 -1 -678 -2 -686 -61 -728 -43 -30 -194 -44 -292
-25 -48 9 -91 40 -112 81 -19 39 -20 62 -22 645 -2 333 -5 619 -8 636 -4 22
-13 34 -28 38 -12 3 -94 6 -183 6 -148 0 -162 -2 -179 -20z"/>
<path d="M3333 3377 c-17 -22 -18 -57 -17 -628 1 -554 4 -657 19 -744 33 -183
125 -297 284 -350 178 -59 555 -59 721 0 172 61 260 190 285 416 9 81 10 1268
1 1296 -9 29 -30 33 -212 33 -143 0 -163 -2 -177 -18 -15 -16 -17 -78 -17
-633 -1 -650 -3 -672 -48 -719 -28 -29 -92 -43 -198 -43 -126 -1 -187 24 -219
88 -19 39 -20 63 -23 665 -2 622 -2 625 -23 643 -18 15 -44 17 -189 17 -164 0
-169 -1 -187 -23z"/>
</g>
</svg>
